<svg data-v-0dd9719b="" version="1.0" xmlns="http://www.w3.org/2000/svg" xmlns:xlink="http://www.w3.org/1999/xlink" width="100%" height="100%" viewBox="0 0 340.000000 250.000000" preserveAspectRatio="xMidYMid meet" color-interpolation-filters="sRGB" style="margin: auto;"> <rect data-v-0dd9719b="" x="0" y="0" width="100%" height="100%" fill="#ffffff" fill-opacity="1" class="background"></rect> <rect data-v-0dd9719b="" x="0" y="0" width="100%" height="100%" fill="url(#watermark)" fill-opacity="1" class="watermarklayer"></rect> <g data-v-0dd9719b="" fill="#333" class="icon-text-wrapper icon-svg-group iconsvg" transform="translate(40.019989013671875,97.42928504943848)"><g class="iconsvg-imagesvg" transform="translate(0,0)"><g><rect fill="#333" fill-opacity="0" stroke-width="2" x="0" y="0" width="55" height="54.979107938983184" class="image-rect"></rect> <svg x="0" y="0" width="55" height="54.979107938983184" filtersec="colorsb1089031364" class="image-svg-svg primary" style="overflow: visible;"><svg xmlns="http://www.w3.org/2000/svg" viewBox="-0.024392234161496162 -0.00439166696742177 206.4888916015625 206.41061401367188"><title>资源 7</title><g fill-rule="evenodd"><path d="M176.24 176.18a102.91 102.91 0 0 1-76.44 30.16c-8.75-.29-10.94-10.72-6.79-17 17.92-27.07 75.72-28.09 101.23-60a56.23 56.23 0 0 0 10.57-21.88c.56-2.21 1.26-4.67 1.63-6.42a102.92 102.92 0 0 1-30.2 75.1z" fill="#03b2de" opacity=".48"></path><path d="M176.18 176.24a102.92 102.92 0 0 0 30.16-76.44c-.29-8.76-10.73-10.94-17-6.79C168.21 107 163 145.3 146.5 173.56c-9.44 16.21-25.92 31.19-45.38 32.82a102.78 102.78 0 0 0 75.06-30.14z" fill="#8e03ff" opacity=".48"></path><path d="M30.22 30.28A102.94 102.94 0 0 1 106.66.12c8.77.29 10.94 10.73 6.79 17-17.91 27.07-75.72 28.09-101.23 60A56.23 56.23 0 0 0 1.65 99c-.56 2.17-1.25 4.63-1.65 6.38a102.93 102.93 0 0 1 30.2-75.1z" fill="#00deb9" opacity=".48"></path><path d="M30.28 30.22A102.94 102.94 0 0 0 .12 106.66c.29 8.77 10.73 10.94 17 6.79 27.07-17.91 28.09-75.72 60-101.23A56.23 56.23 0 0 1 99 1.65c2.21-.56 4.67-1.25 6.42-1.63a102.93 102.93 0 0 0-75.1 30.2z" fill="#1d88e1" opacity=".48"></path><path d="M44 187.8c-32.11-55.4 181.83-82.46 145-142a103.71 103.71 0 0 0-26.5-27.07c25.84 44.36-100 69.18-138.89 106.54C12.3 136.12 10.9 151.63 20 164.34a103.82 103.82 0 0 0 24 23.46z" fill="#8e03ff" opacity=".48"></path><path d="M187.75 44c-51.41-29.78-77.2 148.08-127.43 150-4.47.18-9.6-2-14.56-5a103.71 103.71 0 0 1-27.07-26.5C71.5 193.28 96.63 9 148.17 12.54c4.69.32 10.6 3.57 16.11 7.51a104.32 104.32 0 0 1 23.47 24z" fill="#1d88e1" opacity=".48"></path></g></svg></svg> <!----></g></g> <g transform="translate(62,1.837677001953125)"><g data-gra="path-name" fill-rule="" class="tp-name iconsvg-namesvg" transform="translate(0,0)"><g transform="scale(1)"><g><path d="M30.12-1.56L30.12-15.08 14.72-15.08 14.72-1.56 30.12-1.56ZM1.72-29.64L38.76-29.64 38.76-28.48Q38.76-28.48 19.64-28.48L19.64-28.48Q17.52-22.28 13.4-16.92L13.4-16.92 15.2-16.2 34.92-16.2 34.92 2.04Q34.84 2.32 33.4 2.8L33.4 2.8Q32 3.28 30.88 3.28L30.88 3.28 30.12 3.28 30.12-0.4 14.72-0.4 14.72 2.16Q14.72 2.36 14.28 2.64L14.28 2.64Q13.84 2.96 12.88 3.24L12.88 3.24Q11.96 3.52 10.88 3.52L10.88 3.52 10 3.52 10-12.96Q6-8.84 1.2-6.08L1.2-6.08 0.84-6.44Q5.52-10.76 8.96-16.72L8.96-16.72Q12.44-22.72 13.72-28.48L13.72-28.48 2.04-28.48 1.72-29.64ZM71.2-20.96L71.2-20.96 74.52-17.04Q70.44-15.04 65.32-13.68L65.32-13.68Q68.72-6.64 78.76-3.52L78.76-3.52 78.68-3.08Q75.96-2.52 74.88 0.92L74.88 0.92Q70.88-1.52 68.32-4.92 65.76-8.32 64.44-13.44L64.44-13.44Q63.2-13.08 61.92-12.84L61.92-12.84Q63.4-10.16 63.92-7.16 64.44-4.16 64.04-1.8L64.04-1.8Q63.64 0.52 62.56 1.84L62.56 1.84Q61.12 3.64 56.68 3.56L56.68 3.56Q56.64 1.68 55.72 0.64L55.72 0.64Q54.88-0.2 52.36-0.84L52.36-0.84 52.32-1.32Q55.6-1 57.6-1L57.6-1Q58.52-1 58.76-1.44L58.76-1.44Q59.64-2.8 59.72-6L59.72-6Q52-1 42.08 1.04L42.08 1.04 41.8 0.44Q46.8-1.36 51.48-4.64L51.48-4.64Q56.2-7.92 59.04-11.64L59.04-11.64Q58.88-12.28 58.76-12.64L58.76-12.64Q51.88-8.12 43.12-5.8L43.12-5.8 42.88-6.32Q46.72-8.12 50.56-11.12L50.56-11.12Q54.44-14.12 56.8-17.16L56.8-17.16 56.48-17.64Q50.84-14.36 43.48-12.56L43.48-12.56 43.2-13.04Q50.12-16.2 55.4-21.6L55.4-21.6 47.68-21.6 47.36-22.72 66.52-22.72 69-25.84Q70.52-24.64 72-23.44L72-23.44Q72.76-22.8 73.4-22.24L73.4-22.24Q73.28-21.6 72.32-21.6L72.32-21.6 61.88-21.6Q60.28-20 57.36-18.16L57.36-18.16Q59.72-16.32 61.4-13.72L61.4-13.72Q67.12-17.12 71.2-20.96ZM72.4-23.08L72.4-23.08Q72.2-24.92 72.44-27.36L72.44-27.36 47.6-27.36Q47.76-25.36 47.12-23.88L47.12-23.88Q46.52-22.44 45.44-21.72L45.44-21.72Q44.56-21.08 43.36-21.36 42.16-21.64 41.76-22.72L41.76-22.72Q41.16-24.68 43.32-25.8L43.32-25.8Q44.48-26.44 45.36-27.8L45.36-27.8Q46.24-29.2 46.2-30.76L46.2-30.76 46.76-30.76Q47.28-29.32 47.4-28.52L47.4-28.52 59.36-28.52Q59-28.64 58.64-28.88L58.64-28.88Q58.48-30.2 57.68-31.52 56.88-32.84 55.84-33.64L55.84-33.64 56.12-33.88Q61.4-34.16 62.68-31.88L62.68-31.88Q63.48-30.48 62.4-29.24L62.4-29.24Q62-28.76 61.44-28.52L61.44-28.52 77.08-28.52 77.08-26.48Q74.84-24.4 72.4-23.08ZM96.96-33.8L96.96-33.8 97.28-34.04Q103.12-33.64 104.64-30.84L104.64-30.84Q105.6-29.2 104.52-27.8L104.52-27.8Q103.44-26.44 101.6-27L101.6-27Q101.12-27.16 100.64-27.48L100.64-27.48Q99.92-30.6 96.96-33.8ZM118.76-25.6L89.64-25.6 89.64-16.88Q89.64-14.92 89.56-13.4L89.56-13.4Q89.48-11.92 89.2-9.88L89.2-9.88Q88.96-7.84 88.4-6.12L88.4-6.12Q87.84-4.44 86.92-2.64L86.92-2.64Q86.04-0.84 84.6 0.76L84.6 0.76Q83.16 2.4 81.28 3.76L81.28 3.76 80.88 3.4Q83.4-0.56 84.16-5.44 84.92-10.32 84.92-16.84L84.92-16.84 84.92-28.68 90.36-26.72 118.76-26.72 118.76-25.6ZM105.08 0.16L118.8 0.16 118.8 1.32 87.48 1.32 87.12 0.16 100.36 0.16 100.36-13.8 91.28-13.8 90.96-14.96 100.36-14.96 100.36-24.8 105.08-24.24 105.08-14.96 116.16-14.96 116.16-13.8 105.08-13.8 105.08 0.16ZM150.16-7.24L150.16-6.12 142.2-6.12 142.2 1.36Q142.16 1.48 141.76 1.68L141.76 1.68Q141.36 1.92 140.44 2.12 139.52 2.32 138.44 2.32L138.44 2.32 137.64 2.32 137.64-6.12 130.8-6.12 130.48-7.24 137.64-7.24 137.64-12.08 131.68-12.08 131.36-13.24 140.88-13.24Q141.96-16.56 142.68-20.2L142.68-20.2 146.48-18.68Q144.24-15.28 142.04-13.24L142.04-13.24 149.84-13.24 149.84-12.08 142.2-12.08 142.2-7.24 150.16-7.24ZM132.6-19.72L132.6-19.72 133.04-19.96Q137.64-18.92 138.4-16.48L138.4-16.48Q138.92-14.92 137.72-13.96L137.72-13.96Q136.48-12.88 134.92-13.92L134.92-13.92Q134.72-14.04 134.56-14.2L134.56-14.2Q134.52-17.04 132.6-19.72ZM142.4-28.16L158.56-28.16 158.56-27.04 142.4-27.04 142.4-21.76 155.76-21.76 155.76-1.72Q155.76 0.84 154.52 2.08L154.52 2.08Q153.32 3.32 149.48 3.68L149.48 3.68Q149.28 1.36 148.48 0.44L148.48 0.44Q147.28-0.76 144.84-1.12L144.84-1.12 144.84-1.68Q149-1.36 150.08-1.36L150.08-1.36Q150.92-1.36 150.92-2.2L150.92-2.2 150.92-20.64 129.64-20.64 129.64 1.96Q129.64 2.4 128.32 3 127 3.6 125.6 3.6L125.6 3.6 124.84 3.6 124.84-23.84 129.96-21.76 137.64-21.76 137.64-27.04 121.92-27.04 121.56-28.16 137.64-28.16 137.64-34.04 142.4-33.52 142.4-28.16ZM176.52-22.92L171.56-22.92 171.56-19.76Q175.92-18.36 176.96-15.8L176.96-15.8Q177-16.76 177-18.6L177-18.6 177-23Q176.68-22.92 176.52-22.92L176.52-22.92ZM198.52-22.44L198.52-21.32 181.24-21.32 181.24-18.48Q181.24-15.92 181.12-14 181-12.08 180.52-9.4L180.52-9.4Q180.04-6.76 179.16-4.68 178.28-2.6 176.6-0.4L176.6-0.4Q174.96 1.8 172.64 3.52L172.64 3.52 172.16 3.08Q176.36-3.04 176.88-13.4L176.88-13.4Q176.4-12.64 175.48-12.52L175.48-12.52Q174.6-12.44 173.6-13.2L173.6-13.2Q173.4-15.52 171.56-18.8L171.56-18.8 171.56 2.24Q171.56 2.6 170.32 3.08L170.32 3.08Q169.12 3.6 167.92 3.6L167.92 3.6 167 3.6 167-12.52Q164.88-9 161.68-5.88L161.68-5.88 161.16-6.32Q164.96-12.6 166.64-22.92L166.64-22.92 162-22.92 161.68-24.08 167-24.08 167-34.08 171.56-33.48 171.56-24.08 172.04-24.08 174.04-27.2Q175.72-25.56 177-24.2L177-24.2 177-31.08 181.48-29.68Q189.04-31.52 193.12-33.8L193.12-33.8 195.08-29.92Q188.92-28.6 181.24-28.48L181.24-28.48 181.24-22.44 198.52-22.44ZM196.76-5.84L197.16-5.84 197.32-1.64Q198.2-1.28 198.48-0.88L198.48-0.88Q198.8-0.52 198.8 0.12L198.8 0.12Q198.8 1.48 197.12 2.08L197.12 2.08Q195.44 2.72 191.04 2.72L191.04 2.72 187.28 2.72Q184.52 2.72 183.6 1.96L183.6 1.96Q182.72 1.2 182.72-1.08L182.72-1.08 182.72-19.16 187.36-17.36 195.68-17.36 195.68-9.28Q195.68-7.12 194.8-6.08L194.8-6.08Q193.92-5.08 191.04-4.84L191.04-4.84Q190.92-6.72 190.48-7.44L190.48-7.44Q189.68-8.32 188.12-8.6L188.12-8.6 188.12-9.16Q190.44-9 191.16-9L191.16-9Q191.84-9 191.84-9.68L191.84-9.68 191.84-16.2 186.84-16.2 186.84-2.12Q186.84-1.6 187.12-1.4L187.12-1.4Q187.4-1.24 188.28-1.24L188.28-1.24 191.44-1.24Q193.24-1.24 194.28-1.32L194.28-1.32Q194.96-1.4 195.24-1.76L195.24-1.76Q195.72-2.36 196.76-5.84L196.76-5.84Z" transform="translate(-0.8400000333786011, 34.08000183105469)"></path></g> <!----> <!----> <!----> <!----> <!----> <!----> <!----></g></g> <g data-gra="path-slogan" fill-rule="" class="tp-slogan iconsvg-slogansvg" fill="#333" transform="translate(5,45.84000015258789)"><rect x="0" height="1" y="3.2300000190734863" width="37.23902893066406"></rect> <rect height="1" y="3.2300000190734863" width="33.23902893066406" x="154.72097778320312"></rect> <g transform="translate(40.23902893066406,0)"><g transform="scale(1)"><path d="M5.98-5.08L5.98-5.08L5.08-5.08Q5-6.45 3.28-6.52L3.28-6.52Q1.68-6.48 1.68-5.27L1.68-5.27Q1.68-4.49 2.54-4.38L2.54-4.38L4.57-3.91Q6.17-3.52 6.17-1.95L6.17-1.95Q6.13 0.04 3.36 0.12L3.36 0.12Q1.84 0.12 1.21-0.51L1.21-0.51Q0.43-1.09 0.47-2.30L0.47-2.30L1.41-2.30Q1.45-0.66 3.36-0.63L3.36-0.63Q5.23-0.66 5.27-1.84L5.27-1.84Q5.43-2.81 3.71-3.13L3.71-3.13L2.23-3.44Q0.70-3.87 0.70-5.16L0.70-5.16Q0.82-7.27 3.20-7.34L3.20-7.34Q5.90-7.34 5.98-5.08ZM8.36-4.22L12.11-4.22L12.11-7.15L13.09-7.15L13.09 0L12.11 0L12.11-3.32L8.36-3.32L8.36 0L7.38 0L7.38-7.15L8.36-7.15L8.36-4.22ZM14.73-7.15L15.70-7.15L15.70 0L14.73 0L14.73-7.15ZM16.76-1.60L16.76-2.30L17.66-2.30L17.66-1.80Q17.66-0.63 18.75-0.63L18.75-0.63Q19.88-0.63 19.88-1.88L19.88-1.88L19.88-7.15L20.86-7.15L20.86-1.91Q20.82 0.08 18.79 0.12L18.79 0.12Q16.88 0.08 16.76-1.60L16.76-1.60ZM22.50-7.15L23.48-7.15L23.48 0L22.50 0L22.50-7.15ZM29.84 0L29.14-2.07L26.25-2.07L25.51 0L24.53 0L27.23-7.15L28.32-7.15L30.90 0L29.84 0ZM27.70-6.09L26.56-2.93L28.79-2.93L27.73-6.09L27.70-6.09ZM32.46-0.86L36.88-0.86L36.88 0L31.25 0L31.25-0.78L35.63-6.33L31.56-6.33L31.56-7.15L36.88-7.15L36.88-6.33L32.46-0.86ZM38.79-4.22L42.54-4.22L42.54-7.15L43.52-7.15L43.52 0L42.54 0L42.54-3.32L38.79-3.32L38.79 0L37.81 0L37.81-7.15L38.79-7.15L38.79-4.22ZM49.73-2.66L49.73-7.15L50.70-7.15L50.70-2.54Q50.59 0.04 47.77 0.12L47.77 0.12Q45.16 0.04 45.04-2.38L45.04-2.38L45.04-7.15L46.02-7.15L46.02-2.66Q46.05-0.70 47.81-0.66L47.81-0.66Q49.73-0.70 49.73-2.66L49.73-2.66ZM56.91 0L56.21-2.07L53.32-2.07L52.58 0L51.60 0L54.30-7.15L55.39-7.15L57.97 0L56.91 0ZM54.77-6.09L53.63-2.93L55.86-2.93L54.80-6.09L54.77-6.09ZM60-7.15L63.59-1.37L63.59-7.15L64.53-7.15L64.53 0L63.44 0L59.80-5.78L59.77-5.78L59.77 0L58.83 0L58.83-7.15L60-7.15ZM71.37-3.01L69.18-3.01L69.18-3.83L72.30-3.83L72.30 0L71.68 0L71.45-0.90Q70.63 0.08 69.10 0.12L69.10 0.12Q67.66 0.12 66.88-0.63L66.88-0.63Q65.70-1.72 65.74-3.63L65.74-3.63Q66.02-7.19 69.14-7.34L69.14-7.34Q71.80-7.19 72.19-5L72.19-5L71.25-5Q70.86-6.48 69.10-6.52L69.10-6.52Q66.88-6.37 66.76-3.59L66.76-3.59Q66.76-0.63 69.14-0.63L69.14-0.63Q70-0.63 70.63-1.09L70.63-1.09Q71.41-1.72 71.37-3.01L71.37-3.01ZM77.73-7.15L81.33-1.37L81.33-7.15L82.27-7.15L82.27 0L81.17 0L77.54-5.78L77.50-5.78L77.50 0L76.56 0L76.56-7.15L77.73-7.15ZM88.48 0L87.77-2.07L84.88-2.07L84.14 0L83.16 0L85.86-7.15L86.95-7.15L89.53 0L88.48 0ZM86.33-6.09L85.20-2.93L87.42-2.93L86.37-6.09L86.33-6.09ZM91.56-7.15L95.16-1.37L95.16-7.15L96.09-7.15L96.09 0L95 0L91.37-5.78L91.33-5.78L91.33 0L90.39 0L90.39-7.15L91.56-7.15ZM98.28-0.86L102.70-0.86L102.70 0L97.07 0L97.07-0.78L101.45-6.33L97.38-6.33L97.38-7.15L102.70-7.15L102.70-6.33L98.28-0.86ZM104.61-4.22L108.36-4.22L108.36-7.15L109.34-7.15L109.34 0L108.36 0L108.36-3.32L104.61-3.32L104.61 0L103.63 0L103.63-7.15L104.61-7.15L104.61-4.22ZM110.98-7.15L111.95-7.15L111.95 0L110.98 0L110.98-7.15Z" transform="translate(-0.466889880952381, 7.34375)"></path></g></g></g></g></g><defs v-gra="od"></defs></svg>